<?xml version="1.0" encoding="UTF-8"?>
<svg width="18px" height="12px" viewBox="0 0 18 12" version="1.1" xmlns="http://www.w3.org/2000/svg" xmlns:xlink="http://www.w3.org/1999/xlink">
    <title>53310064-6156-4F38-97A4-47277B643AC0</title>
    <g id="Onboard" stroke="none" stroke-width="1" fill="none" fill-rule="evenodd">
        <g id="Home-/-Menu" transform="translate(-26.000000, -189.000000)">
            <g id="Subscriptions" transform="translate(0.000000, 164.000000)">
                <g id="Menu-/-Icon-box" transform="translate(20.000000, 15.000000)">
                    <g id="Home-/-Cloud-tile-/-Azure" transform="translate(5.000000, 5.000000)">
                        <g id="AWS-logo---White" transform="translate(1.000000, 5.000000)">
                            <path d="M5.09006623,3.89205298 C5.09006623,4.11258278 5.11390728,4.29139073 5.15562914,4.42251656 C5.20331126,4.55364238 5.26291391,4.69668874 5.34635762,4.85165563 C5.37615894,4.89933775 5.38807947,4.94701987 5.38807947,4.98874172 C5.38807947,5.04834437 5.35231788,5.10794702 5.27483444,5.16754967 L4.89933775,5.41788079 C4.84569536,5.45364238 4.79205298,5.47152318 4.74437086,5.47152318 C4.68476821,5.47152318 4.62516556,5.44172185 4.56556291,5.38807947 C4.48211921,5.2986755 4.41059603,5.20331126 4.35099338,5.10794702 C4.29139073,5.00662252 4.23178808,4.89337748 4.16622517,4.75629139 C3.7013245,5.30463576 3.11721854,5.57880795 2.41390728,5.57880795 C1.91324503,5.57880795 1.51390728,5.43576159 1.2218543,5.14966887 C0.929801325,4.86357616 0.780794702,4.48211921 0.780794702,4.00529801 C0.780794702,3.4986755 0.959602649,3.08741722 1.32317881,2.77748344 C1.68675497,2.46754967 2.16953642,2.31258278 2.78344371,2.31258278 C2.98609272,2.31258278 3.19470199,2.33046358 3.41523179,2.3602649 C3.63576159,2.39006623 3.86225166,2.43774834 4.10066225,2.49139073 L4.10066225,2.05629139 C4.10066225,1.60331126 4.00529801,1.28741722 3.8205298,1.10264901 C3.62980132,0.917880795 3.30794702,0.828476821 2.84900662,0.828476821 C2.64039735,0.828476821 2.42582781,0.852317881 2.20529801,0.905960265 C1.98476821,0.959602649 1.77019868,1.02516556 1.5615894,1.10860927 C1.46622517,1.15033113 1.39470199,1.17417219 1.35298013,1.18609272 C1.31125828,1.19801325 1.28145695,1.20397351 1.25761589,1.20397351 C1.17417219,1.20397351 1.13245033,1.14437086 1.13245033,1.0192053 L1.13245033,0.727152318 C1.13245033,0.631788079 1.14437086,0.560264901 1.17417219,0.518543046 C1.20397351,0.476821192 1.25761589,0.435099338 1.3410596,0.393377483 C1.54966887,0.286092715 1.8,0.196688742 2.09205298,0.125165563 C2.38410596,0.0476821192 2.69403974,0.0119205298 3.0218543,0.0119205298 C3.73112583,0.0119205298 4.24966887,0.172847682 4.58344371,0.494701987 C4.91125828,0.816556291 5.0781457,1.30529801 5.0781457,1.96092715 L5.0781457,3.89205298 L5.09006623,3.89205298 Z M2.67019868,4.79801325 C2.86688742,4.79801325 3.06953642,4.76225166 3.28410596,4.69072848 C3.4986755,4.6192053 3.68940397,4.48807947 3.85033113,4.30927152 C3.94569536,4.19602649 4.01721854,4.07086093 4.05298013,3.92781457 C4.08874172,3.78476821 4.11258278,3.61192053 4.11258278,3.40927152 L4.11258278,3.1589404 C3.9397351,3.11721854 3.75496689,3.08145695 3.56423841,3.05761589 C3.37350993,3.03377483 3.18874172,3.0218543 3.00397351,3.0218543 C2.60463576,3.0218543 2.31258278,3.09933775 2.11589404,3.2602649 C1.9192053,3.42119205 1.82384106,3.64768212 1.82384106,3.94569536 C1.82384106,4.22582781 1.89536424,4.43443709 2.04437086,4.57748344 C2.18741722,4.72649007 2.39602649,4.79801325 2.67019868,4.79801325 Z M7.45629139,5.44172185 C7.34900662,5.44172185 7.27748344,5.42384106 7.22980132,5.38211921 C7.18211921,5.34635762 7.14039735,5.26291391 7.10463576,5.14966887 L5.70397351,0.542384106 C5.66821192,0.423178808 5.65033113,0.345695364 5.65033113,0.30397351 C5.65033113,0.208609272 5.69801325,0.154966887 5.79337748,0.154966887 L6.37748344,0.154966887 C6.49072848,0.154966887 6.56821192,0.172847682 6.60993377,0.214569536 C6.65761589,0.250331126 6.69337748,0.333774834 6.72913907,0.447019868 L7.73046358,4.39271523 L8.6602649,0.447019868 C8.69006623,0.32781457 8.72582781,0.250331126 8.77350993,0.214569536 C8.82119205,0.178807947 8.90463576,0.154966887 9.01192053,0.154966887 L9.48874172,0.154966887 C9.60198675,0.154966887 9.6794702,0.172847682 9.72715232,0.214569536 C9.77483444,0.250331126 9.81655629,0.333774834 9.84039735,0.447019868 L10.7821192,4.44039735 L11.813245,0.447019868 C11.8490066,0.32781457 11.8907285,0.250331126 11.9324503,0.214569536 C11.9801325,0.178807947 12.0576159,0.154966887 12.1649007,0.154966887 L12.7192053,0.154966887 C12.8145695,0.154966887 12.8682119,0.202649007 12.8682119,0.30397351 C12.8682119,0.333774834 12.8622517,0.363576159 12.8562914,0.399337748 C12.8503311,0.435099338 12.8384106,0.482781457 12.8145695,0.548344371 L11.3781457,5.15562914 C11.3423841,5.27483444 11.3006623,5.35231788 11.2529801,5.38807947 C11.205298,5.42384106 11.1278146,5.44768212 11.0264901,5.44768212 L10.5139073,5.44768212 C10.4006623,5.44768212 10.3231788,5.42980132 10.2754967,5.38807947 C10.2278146,5.34635762 10.1860927,5.26887417 10.1622517,5.14966887 L9.2384106,1.30529801 L8.3205298,5.14370861 C8.29072848,5.26291391 8.25496689,5.34039735 8.20728477,5.38211921 C8.15960265,5.42384106 8.07615894,5.44172185 7.96887417,5.44172185 L7.45629139,5.44172185 Z M15.1152318,5.60264901 C14.805298,5.60264901 14.4953642,5.56688742 14.197351,5.49536424 C13.8993377,5.42384106 13.6668874,5.34635762 13.5119205,5.25695364 C13.4165563,5.20331126 13.3509934,5.14370861 13.3271523,5.09006623 C13.3033113,5.03642384 13.2913907,4.97682119 13.2913907,4.92317881 L13.2913907,4.6192053 C13.2913907,4.49403974 13.3390728,4.43443709 13.4284768,4.43443709 C13.4642384,4.43443709 13.5,4.44039735 13.5357616,4.45231788 C13.5715232,4.46423841 13.6251656,4.48807947 13.6847682,4.51192053 C13.8874172,4.6013245 14.107947,4.67284768 14.3403974,4.7205298 C14.5788079,4.76821192 14.8112583,4.79205298 15.0496689,4.79205298 C15.4251656,4.79205298 15.7172185,4.72649007 15.9198675,4.59536424 C16.1225166,4.46423841 16.2298013,4.27350993 16.2298013,4.02913907 C16.2298013,3.86225166 16.1761589,3.72516556 16.0688742,3.61192053 C15.9615894,3.4986755 15.7589404,3.39735099 15.4668874,3.30198675 L14.602649,3.03377483 C14.1675497,2.89668874 13.8456954,2.69403974 13.6490066,2.42582781 C13.4523179,2.16357616 13.3509934,1.87152318 13.3509934,1.5615894 C13.3509934,1.31125828 13.4046358,1.09072848 13.5119205,0.9 C13.6192053,0.709271523 13.7622517,0.542384106 13.9410596,0.411258278 C14.1198675,0.274172185 14.3225166,0.172847682 14.5609272,0.101324503 C14.7993377,0.0298013245 15.0496689,1.91846539e-15 15.3119205,1.91846539e-15 C15.4430464,1.91846539e-15 15.5801325,0.0059602649 15.7112583,0.0238410596 C15.8483444,0.0417218543 15.9735099,0.0655629139 16.0986755,0.0894039735 C16.2178808,0.119205298 16.3311258,0.149006623 16.4384106,0.184768212 C16.5456954,0.220529801 16.6291391,0.256291391 16.6887417,0.29205298 C16.7721854,0.339735099 16.8317881,0.387417219 16.8675497,0.441059603 C16.9033113,0.488741722 16.9211921,0.554304636 16.9211921,0.637748344 L16.9211921,0.917880795 C16.9211921,1.04304636 16.8735099,1.10860927 16.784106,1.10860927 C16.7364238,1.10860927 16.6589404,1.08476821 16.5576159,1.03708609 C16.2178808,0.882119205 15.8364238,0.804635762 15.413245,0.804635762 C15.0735099,0.804635762 14.805298,0.858278146 14.6205298,0.971523179 C14.4357616,1.08476821 14.3403974,1.25761589 14.3403974,1.50198675 C14.3403974,1.66887417 14.4,1.81192053 14.5192053,1.92516556 C14.6384106,2.0384106 14.8589404,2.15165563 15.1748344,2.25298013 L16.0211921,2.52119205 C16.4503311,2.65827815 16.7602649,2.84900662 16.9450331,3.09337748 C17.1298013,3.33774834 17.2192053,3.61788079 17.2192053,3.92781457 C17.2192053,4.18410596 17.1655629,4.41655629 17.0642384,4.6192053 C16.9569536,4.8218543 16.8139073,5.00066225 16.6291391,5.14370861 C16.4443709,5.29271523 16.2238411,5.4 15.9675497,5.47748344 C15.6993377,5.56092715 15.4192053,5.60264901 15.1152318,5.60264901 Z" id="Shape" fill-opacity="0.87" fill="#FFFFFF" fill-rule="nonzero"></path>
                            <g id="Group" transform="translate(0.000000, 6.669536)" fill="#FF9900">
                                <path d="M16.2417219,1.82980132 C14.2807947,3.2781457 11.4317881,4.04701987 8.98211921,4.04701987 C5.54900662,4.04701987 2.45562914,2.77748344 0.119205298,0.667549669 C-0.0655629139,0.500662252 0.101324503,0.274172185 0.321854305,0.405298013 C2.84900662,1.87152318 5.96622517,2.75960265 9.19072848,2.75960265 C11.3662252,2.75960265 13.7562914,2.30662252 15.9556291,1.37682119 C16.2834437,1.22781457 16.5635762,1.59139073 16.2417219,1.82980132 Z" id="Path"></path>
                                <path d="M17.0582781,0.9 C16.807947,0.578145695 15.4013245,0.745033113 14.7635762,0.822516556 C14.5728477,0.846357616 14.5430464,0.679470199 14.715894,0.554304636 C15.8364238,-0.232450331 17.6781457,-0.0059602649 17.8927152,0.256291391 C18.1072848,0.524503311 17.8331126,2.36622517 16.784106,3.24834437 C16.6231788,3.38543046 16.4682119,3.31390728 16.5397351,3.13509934 C16.7781457,2.54503311 17.3086093,1.21589404 17.0582781,0.9 Z" id="Path"></path>
                            </g>
                        </g>
                    </g>
                </g>
            </g>
        </g>
    </g>
</svg>